<svg class="icon" viewBox="0 0 1024 1024" version="1.1" xmlns="http://www.w3.org/2000/svg" p-id="3825" height="128" width="128"><path d="M591.3 603.6L517.5 672l-73.8-68.3s-179.1-83.4-141.8-334.9C325.5 109.7 442.6 68.5 513 68.2c70.3 0.2 187.5 41.5 211.1 200.5 37.3 251.7-132.8 334.9-132.8 334.9z" fill="#484848" p-id="3826"></path><path d="M517.5 116.8c3.6 0.2 5.6 0.5 5.6 0.5s147.2-25.1 190.5 227.9c14.2 2.4 18.6-11.2 18.6-11.2S715.5 92.8 523 92.8c-1.9 0-3.7 0.1-5.6 0.1l0.1 23.9z" fill="#74797D" p-id="3827"></path><path d="M720.2 367.2c11.9 4 15.4 25.8 7.7 48.6s-23.6 38.1-35.5 34c-11.9-4-15.4-25.8-7.7-48.6s23.6-38 35.5-34z" fill="#FFDDB8" p-id="3828"></path><path d="M312.3 366.3c-11.9 4.1-15.4 26.1-7.7 49.3 7.7 23.1 23.6 38.6 35.5 34.5s15.4-26.1 7.7-49.3c-7.6-23.2-23.5-38.6-35.5-34.5z" fill="#F5D4B1" p-id="3829"></path><path d="M512.5 952.6H786s-13.6-191.3-200.4-221c-50.9-3.7-73.2-2.3-73.2-2.3v0.2c0.1 158.7 0.1 223.1 0.1 223.1z" fill="#3B5E7C" p-id="3830"></path><path d="M511.4 952.6H239s13.6-191.5 199.5-221.3c50.6-3.7 72.9-2.3 72.9-2.3v223.6z" fill="#283F53" p-id="3831"></path><path d="M443.7 607.3h145.1v269.2H443.7V607.3z" fill="#FFDDB8" p-id="3832"></path><path d="M443.7 608.8h145.1v45.1l-145.1 88V608.8z" fill="#E5C6A5" p-id="3833"></path><path d="M512.3 952.4s31.2 0.2 46 0.2c6.1-9.9 77.9-204 77.3-207.1-0.3-1.9-94.2 18.2-94.2 18.2l-29.1-20.3v209z" fill="#FFFFFF" p-id="3834"></path><path d="M537.8 921.1s2 23.7 17.4 1.9c15.4-21.7-36.8-118.1-36.8-118.1l19.4 116.2z" fill="#3B5E7C" p-id="3835"></path><path d="M519.1 952.4s-31.2 0.2-46 0.2c-6.1-9.9-77.9-203.7-77.3-206.8 0.3-1.9 96.4 17.7 96.4 17.7l26.9-16.4v205.3z" fill="#E0ECFF" p-id="3836"></path><path d="M592.9 695.4l49.1 40.3s1 114.1 0 109.8-125.1-98.6-125.1-98.6l76-51.5z" fill="#FFFFFF" p-id="3837"></path><path d="M520.8 804.9S468.6 901.3 484 923c15.4 21.7 17.4-1.9 17.4-1.9l19.4-116.2z" fill="#283F53" p-id="3838"></path><path d="M440.8 695.4l-49.3 40.4s-1 114.2 0 109.9S517.1 747 517.1 747l-76.3-51.6z" fill="#FFFFFF" p-id="3839"></path><path d="M516.8 815.3s71.1 61.8 71.8 21.5V767s-6-19.1-32.6 0c-37.1 25.3-39.1 26.9-39.1 26.9v21.4h-0.1z" fill="#3B5E7C" p-id="3840"></path><path d="M519.9 815.3s-71.1 62.2-71.8 21.6v-70.4s6-19.2 32.6 0c37.1 25.5 39.1 27.1 39.1 27.1l0.1 21.7z" fill="#283F53" p-id="3841"></path><path d="M312 793v159.6h-75.2s7.3-91.7 75.2-159.6zM787.8 952.6h-75.2V793c67.9 67.9 75.2 159.6 75.2 159.6z" fill="#E0ECFF" p-id="3842"></path><path d="M357.1 531.9c31.7 65.2 133.4 107.7 158.1 108.9V197.9c-106.2 0-183.4 99.3-183.4 221.8 0 41.1 9.3 79.2 25.3 112.2z" fill="#F5D4B1" p-id="3843"></path><path d="M673 531.9C641 597 538.2 639.5 513.1 640.7V197.9c107.4 0 185.5 99.3 185.5 221.8 0 41.1-9.3 79.2-25.6 112.2z" fill="#FFDDB8" p-id="3844"></path><path d="M584.5 180S491.3 312.7 334 372.3c-35-61.4-26.8-125.2-26.8-125.2S443.8 129.7 584.5 180z" fill="#484848" p-id="3845"></path><path d="M597.8 563.9s89.9-43.8 112.6-98.4c15.1 3.2 11 12.1 11 12.1s-33.4 52.5-118.1 99.1c-32.7 9.7-5.5-12.8-5.5-12.8z" fill="#91959B" p-id="3846"></path><path d="M728.2 332.5c-36.3-4.6-32.5 37.9-37.4 87.7s-16.5 88.1 19.8 92.7c36.3 4.6 69.7-32.1 74.6-82 4.9-49.8-20.6-93.9-57-98.4z" fill="#484848" p-id="3847"></path><path d="M299.9 332.5c36.3-4.6 32.5 37.9 37.4 87.7s16.5 88.1-19.8 92.7c-36.3 4.6-69.7-32.1-74.5-82-4.9-49.8 20.6-93.9 56.9-98.4z" fill="#333333" p-id="3848"></path><path d="M566.7 546.7c20-4.1 38.7 4.9 41.7 20.1 3.1 15.1-10.6 30.7-30.6 34.7s-38.7-4.9-41.7-20.1c-3.1-15.1 10.7-30.7 30.6-34.7z" fill="#484848" p-id="3849"></path><path d="M517.5 116.8c-3.6 0.2-5.6 0.5-5.6 0.5S364.7 92.2 321.4 345.2c-14.2 2.4-18.6-11.2-18.6-11.2S319.4 92.8 511.9 92.8c1.9 0 3.7 0.1 5.6 0.1v23.9z" fill="#5F6366" p-id="3850"></path></svg>